<svg xmlns="http://www.w3.org/2000/svg" width="640" height="360" viewBox="0 0 640 360" fill="none" role="img" aria-label="Order and checkout illustration">
  <defs>
    <linearGradient id="bg" x1="0" y1="0" x2="640" y2="360" gradientUnits="userSpaceOnUse">
      <stop offset="0" stop-color="#FFF7EE"/>
      <stop offset="0.55" stop-color="#FFF3E6"/>
      <stop offset="1" stop-color="#FFFDFB"/>
    </linearGradient>
    <linearGradient id="accent" x1="140" y1="70" x2="500" y2="290" gradientUnits="userSpaceOnUse">
      <stop offset="0" stop-color="#F07F29" stop-opacity="0.22"/>
      <stop offset="1" stop-color="#FFB25C" stop-opacity="0.18"/>
    </linearGradient>
    <filter id="shadow" x="-20" y="-20" width="680" height="420" color-interpolation-filters="sRGB">
      <feDropShadow dx="0" dy="18" stdDeviation="20" flood-color="#111827" flood-opacity="0.14"/>
    </filter>
  </defs>

  <rect width="640" height="360" rx="22" fill="url(#bg)"/>
  <path d="M0 60C120 10 190 150 320 120C450 90 500 20 640 80V360H0V60Z" fill="url(#accent)"/>

  <g filter="url(#shadow)">
    <rect x="86" y="78" width="300" height="210" rx="18" fill="#FFFFFF" stroke="#F2E6D8"/>
    <rect x="110" y="104" width="220" height="16" rx="8" fill="#F3F4F6"/>
    <rect x="110" y="130" width="160" height="12" rx="6" fill="#F3F4F6"/>
    <rect x="110" y="154" width="250" height="12" rx="6" fill="#F3F4F6"/>
    <rect x="110" y="178" width="210" height="12" rx="6" fill="#F3F4F6"/>
    <rect x="110" y="202" width="190" height="12" rx="6" fill="#F3F4F6"/>
    <rect x="110" y="236" width="132" height="36" rx="12" fill="#F07F29"/>
    <path d="M128 254h16m-8-8v16" stroke="#FFFFFF" stroke-width="2.2" stroke-linecap="round"/>
    <path d="M156 260c10 0 18-8 18-18" stroke="#FFFFFF" stroke-width="2.2" stroke-linecap="round" opacity="0.9"/>
  </g>

  <g filter="url(#shadow)">
    <rect x="356" y="118" width="198" height="142" rx="18" fill="#FFFFFF" stroke="#F2E6D8"/>
    <rect x="374" y="140" width="162" height="18" rx="9" fill="#111827" fill-opacity="0.10"/>
    <rect x="374" y="170" width="98" height="12" rx="6" fill="#111827" fill-opacity="0.08"/>
    <rect x="374" y="192" width="140" height="12" rx="6" fill="#111827" fill-opacity="0.08"/>
    <rect x="374" y="214" width="70" height="22" rx="11" fill="#FFB25C" fill-opacity="0.22" stroke="#F07F29" stroke-opacity="0.18"/>
    <path d="M402 224h14" stroke="#F07F29" stroke-width="2.2" stroke-linecap="round"/>
    <path d="M422 219l6 6-6 6" stroke="#F07F29" stroke-width="2.2" stroke-linecap="round" stroke-linejoin="round"/>
  </g>

  <circle cx="520" cy="86" r="10" fill="#F07F29" fill-opacity="0.18"/>
  <circle cx="120" cy="300" r="12" fill="#FFB25C" fill-opacity="0.18"/>
  <circle cx="582" cy="292" r="14" fill="#F07F29" fill-opacity="0.12"/>
</svg>
